{
 "cells": [
  {
   "cell_type": "markdown",
   "metadata": {},
   "source": [
    "## Animation of training procedure"
   ]
  },
  {
   "cell_type": "code",
   "execution_count": 2,
   "metadata": {},
   "outputs": [
    {
     "name": "stdout",
     "output_type": "stream",
     "text": [
      "recording started\n",
      "recording ended\n",
      "recording saved in videos/icra_video/train/0.mp4\n",
      "recording started\n",
      "recording ended\n",
      "recording saved in videos/icra_video/train/1.mp4\n",
      "recording started\n",
      "recording ended\n",
      "recording saved in videos/icra_video/train/2.mp4\n",
      "recording started\n",
      "recording ended\n",
      "recording saved in videos/icra_video/train/3.mp4\n",
      "recording started\n",
      "recording ended\n",
      "recording saved in videos/icra_video/train/4.mp4\n"
     ]
    }
   ],
   "source": [
    "from quad_race_env import *\n",
    "from randomization import *\n",
    "from stable_baselines3 import PPO\n",
    "from quadcopter_animation import animation\n",
    "import os\n",
    "\n",
    "#  ANIMATION FUNCTION\n",
    "def animate_policy(model, env, **kwargs):\n",
    "    env.reset()\n",
    "    def run():\n",
    "        actions, _ = model.predict(env.states)  \n",
    "        states, rewards, dones, infos = env.step(actions)\n",
    "        # print(infos)\n",
    "        return env.render()\n",
    "    animation.view(run, gate_pos=env.gate_pos, gate_yaw=env.gate_yaw, **kwargs)\n",
    "\n",
    "# the general model is: \"models/nn_size_comparison/run1_64_64_64/98000000.zip\"\n",
    "final_index = 98 # million steps\n",
    "# load n stages of training\n",
    "n = 3\n",
    "# indices = [int(final_index*i/n)*1000_000 for i in range(1, n+1)]\n",
    "indices = np.array([1,2,10,20,98])*1000_000\n",
    "\n",
    "# load the model\n",
    "models = [PPO.load(f\"models/nn_size_comparison/run1_64_64_64/{index}.zip\") for index in indices]\n",
    "\n",
    "# animate the models\n",
    "os.makedirs(\"videos/icra_video\", exist_ok=True)\n",
    "os.makedirs(\"videos/icra_video/train\", exist_ok=True)\n",
    "\n",
    "env = Quadcopter3DGates(num_envs=100, randomization=randomization_big, pause_if_collision=True)\n",
    "for i, m in enumerate(models):\n",
    "    if i == len(models)-1:\n",
    "        animate_policy(m, env, record_steps=500, record_file=f\"videos/icra_video/train/{i}.mp4\")\n",
    "    else:\n",
    "        animate_policy(m, env, record_steps=100, record_file=f\"videos/icra_video/train/{i}.mp4\")"
   ]
  },
  {
   "cell_type": "code",
   "execution_count": 3,
   "metadata": {},
   "outputs": [
    {
     "name": "stderr",
     "output_type": "stream",
     "text": [
      "ffmpeg version 4.4.2 Copyright (c) 2000-2021 the FFmpeg developers\n",
      "  built with gcc 12.3.0 (conda-forge gcc 12.3.0-2)\n",
      "  configuration: --prefix=/home/robinferede/miniconda3/envs/quad --cc=/home/conda/feedstock_root/build_artifacts/ffmpeg_1697113881276/_build_env/bin/x86_64-conda-linux-gnu-cc --cxx=/home/conda/feedstock_root/build_artifacts/ffmpeg_1697113881276/_build_env/bin/x86_64-conda-linux-gnu-c++ --nm=/home/conda/feedstock_root/build_artifacts/ffmpeg_1697113881276/_build_env/bin/x86_64-conda-linux-gnu-nm --ar=/home/conda/feedstock_root/build_artifacts/ffmpeg_1697113881276/_build_env/bin/x86_64-conda-linux-gnu-ar --disable-doc --disable-openssl --enable-avresample --enable-demuxer=dash --enable-hardcoded-tables --enable-libfreetype --enable-libfontconfig --enable-libopenh264 --enable-gnutls --enable-libmp3lame --enable-libvpx --enable-pthreads --enable-vaapi --enable-gpl --enable-libx264 --enable-libx265 --enable-libaom --enable-libsvtav1 --enable-libxml2 --enable-pic --enable-shared --disable-static --enable-version3 --enable-zlib --pkg-config=/home/conda/feedstock_root/build_artifacts/ffmpeg_1697113881276/_build_env/bin/pkg-config\n",
      "  libavutil      56. 70.100 / 56. 70.100\n",
      "  libavcodec     58.134.100 / 58.134.100\n",
      "  libavformat    58. 76.100 / 58. 76.100\n",
      "  libavdevice    58. 13.100 / 58. 13.100\n",
      "  libavfilter     7.110.100 /  7.110.100\n",
      "  libavresample   4.  0.  0 /  4.  0.  0\n",
      "  libswscale      5.  9.100 /  5.  9.100\n",
      "  libswresample   3.  9.100 /  3.  9.100\n",
      "  libpostproc    55.  9.100 / 55.  9.100\n",
      "Input #0, concat, from 'videos/icra_video/train/video_list.txt':\n",
      "  Duration: N/A, start: 0.000000, bitrate: 86451 kb/s\n",
      "  Stream #0:0(und): Video: mpeg4 (Simple Profile) (mp4v / 0x7634706D), yuv420p, 864x700 [SAR 1:1 DAR 216:175], 86451 kb/s, 100 fps, 100 tbr, 12800 tbn, 12800 tbc\n",
      "    Metadata:\n",
      "      handler_name    : VideoHandler\n",
      "      vendor_id       : [0][0][0][0]\n",
      "Output #0, mp4, to 'videos/icra_video/train/all.mp4':\n",
      "  Metadata:\n",
      "    encoder         : Lavf58.76.100\n",
      "  Stream #0:0(und): Video: mpeg4 (Simple Profile) (mp4v / 0x7634706D), yuv420p, 864x700 [SAR 1:1 DAR 216:175], q=2-31, 86451 kb/s, 100 fps, 100 tbr, 12800 tbn, 12800 tbc\n",
      "    Metadata:\n",
      "      handler_name    : VideoHandler\n",
      "      vendor_id       : [0][0][0][0]\n",
      "Stream mapping:\n",
      "  Stream #0:0 -> #0:0 (copy)\n",
      "Press [q] to stop, [?] for help\n",
      "frame=  900 fps=0.0 q=-1.0 Lsize=   86689kB time=00:00:08.99 bitrate=78993.6kbits/s speed= 213x    \n",
      "video:86684kB audio:0kB subtitle:0kB other streams:0kB global headers:0kB muxing overhead: 0.006364%\n"
     ]
    },
    {
     "data": {
      "text/plain": [
       "0"
      ]
     },
     "execution_count": 3,
     "metadata": {},
     "output_type": "execute_result"
    }
   ],
   "source": [
    "import os\n",
    "\n",
    "# remove the old all.mp4 file\n",
    "if os.path.exists('videos/icra_video/train/all.mp4'):\n",
    "    os.remove('videos/icra_video/train/all.mp4')\n",
    "\n",
    "# Create a text file with the list of videos\n",
    "with open('videos/icra_video/train/video_list.txt', 'w') as f:\n",
    "    for video_file in sorted(os.listdir('videos/icra_video/train')):\n",
    "        if video_file.endswith('.mp4'):\n",
    "            f.write(f\"file '{os.path.abspath('videos/icra_video/train/' + video_file)}'\\n\")\n",
    "\n",
    "# Run the FFmpeg command\n",
    "os.system(\"ffmpeg -f concat -safe 0 -i videos/icra_video/train/video_list.txt -c copy videos/icra_video/train/all.mp4\")\n"
   ]
  },
  {
   "cell_type": "code",
   "execution_count": null,
   "metadata": {},
   "outputs": [],
   "source": []
  }
 ],
 "metadata": {
  "kernelspec": {
   "display_name": "quad",
   "language": "python",
   "name": "python3"
  },
  "language_info": {
   "codemirror_mode": {
    "name": "ipython",
    "version": 3
   },
   "file_extension": ".py",
   "mimetype": "text/x-python",
   "name": "python",
   "nbconvert_exporter": "python",
   "pygments_lexer": "ipython3",
   "version": "3.10.14"
  }
 },
 "nbformat": 4,
 "nbformat_minor": 2
}
